<svg width="112" height="112" viewBox="0 0 112 112" fill="none" xmlns="http://www.w3.org/2000/svg">
<rect width="112" height="112" fill="#161A2B"/>
<path d="M52.8002 38.4C45.2971 38.4 39.2002 44.4969 39.2002 52C39.2002 59.5031 45.2971 65.6 52.8002 65.6C55.7689 65.6 58.5127 64.6438 60.7502 63.025L71.2752 73.525L73.5252 71.275L63.1252 60.85C65.1689 58.4688 66.4002 55.3781 66.4002 52C66.4002 44.4969 60.3033 38.4 52.8002 38.4ZM52.8002 40C59.4377 40 64.8002 45.3625 64.8002 52C64.8002 58.6375 59.4377 64 52.8002 64C46.1627 64 40.8002 58.6375 40.8002 52C40.8002 45.3625 46.1627 40 52.8002 40Z" fill="white"/>
<path fill-rule="evenodd" clip-rule="evenodd" d="M55.7767 46.85L49.4837 51.2098L51.9327 52.6268C52.2786 52.8269 52.3795 53.2993 52.1581 53.682L49.9514 57.496L56.2811 53.2006L53.7766 51.7516C53.4308 51.5514 53.3299 51.079 53.5513 50.6963L55.7767 46.85ZM56.3857 45.3505C56.9255 44.9766 57.5182 45.5739 57.1827 46.1537L54.383 50.9926L57.1801 52.611C57.5585 52.8299 57.5421 53.4162 57.1501 53.6822L49.3514 58.9745C48.8113 59.341 48.226 58.7444 48.5597 58.1676L51.3264 53.3858L48.5895 51.8022C48.2133 51.5846 48.2268 51.003 48.6142 50.7346L56.3857 45.3505Z" fill="white"/>
</svg>
