<svg width="112" height="112" viewBox="0 0 112 112" fill="none" xmlns="http://www.w3.org/2000/svg">
<rect width="112" height="112" fill="#161A2B"/>
<path fill-rule="evenodd" clip-rule="evenodd" d="M39.875 42C38.813 42 38 42.813 38 43.875V68.25C38 69.6245 39.1255 70.75 40.5 70.75C40.5 70.75 70.25 70.75 70.75 70.75C73 70.75 73 69.75 73 68.75V49.5V48.25V47.625C73 46.563 72.187 45.75 71.125 45.75H55.312C54.8115 45.75 54.3745 45.562 53.9985 45.186L51.689 42.8765C51.125 42.3125 50.312 42 49.5015 42H39.875ZM39.875 43.25H49.5015C49.9995 43.25 50.4365 43.438 50.8125 43.814L53.1245 46.1235C53.686 46.6875 54.499 47 55.312 47H71.125C71.501 47 71.75 47.249 71.75 47.625V63.25H47.375C47.0298 63.25 46.75 63.5298 46.75 63.875C46.75 64.2202 47.0298 64.5 47.375 64.5H71.75V68.25V69.5H40.5C39.8115 69.5 39.25 68.9385 39.25 68.25V64.5V63.25V43.875C39.25 43.499 39.499 43.25 39.875 43.25ZM43.625 50.75C43.249 50.75 43 50.999 43 51.375C43 51.751 43.249 52 43.625 52H53C53.376 52 53.625 51.751 53.625 51.375C53.625 50.999 53.376 50.75 53 50.75H43.625ZM43.625 53.25C43.249 53.25 43 53.499 43 53.875C43 54.251 43.249 54.5 43.625 54.5H49.125C49.501 54.5 49.75 54.251 49.75 53.875C49.75 53.499 49.501 53.25 49.125 53.25H43.625Z" fill="white"/>
</svg>
