<svg width="17" height="16" viewBox="0 0 17 16" fill="none" xmlns="http://www.w3.org/2000/svg">
<path d="M4.80038 1L6.67038 4.73L5.73038 6.6C6.6546 8.68156 8.31882 10.3458 10.4004 11.27L12.2704 10.33L16.0004 12.2V15C7.60038 14.07 2.89038 8.28 2.00038 1H4.80038ZM4.80038 0H2.00038C1.8584 0.000179796 1.71808 0.0305933 1.58876 0.0892172C1.45944 0.147841 1.34409 0.233332 1.25038 0.34C1.15601 0.445 1.08495 0.568791 1.04186 0.703229C0.998769 0.837668 0.984634 0.979706 1.00038 1.12C2.00038 9.51 7.59038 15.12 15.8804 15.99H16.0004C16.2469 15.9921 16.4855 15.9031 16.6704 15.74C16.774 15.6465 16.8569 15.5324 16.9137 15.4049C16.9705 15.2775 17.0001 15.1395 17.0004 15V12.2C16.9998 12.0153 16.9481 11.8344 16.8511 11.6773C16.754 11.5202 16.6153 11.3931 16.4504 11.31L12.7104 9.44C12.5721 9.37129 12.4198 9.33553 12.2654 9.33553C12.111 9.33553 11.9587 9.37129 11.8204 9.44L10.3704 10.16C8.86776 9.35037 7.64443 8.10613 6.86038 6.59L7.56038 5.18C7.62909 5.04172 7.66485 4.88941 7.66485 4.735C7.66485 4.58059 7.62909 4.42828 7.56038 4.29L5.69038 0.55C5.60728 0.385086 5.48014 0.246402 5.32305 0.149323C5.16596 0.0522435 4.98505 0.000559705 4.80038 0Z" fill="black"/>
</svg>
